<svg width="81" height="80" viewBox="0 0 81 80" fill="none" xmlns="http://www.w3.org/2000/svg">
<g filter="url(#filter0_b_1111_12476)">
<rect x="7.17383" y="7.69775" width="66.9487" height="65.7551" rx="32.8776" fill="#FF4949"/>
</g>
<path d="M56.0265 42.8771L55.7385 44.2164C55.5094 45.2835 54.9332 46.2228 54.1176 46.8592C53.302 47.4956 52.3026 47.7854 51.306 47.6746L48.6749 47.3825C47.8178 47.2877 47.0092 46.9017 46.3627 46.2785C45.7163 45.6554 45.2644 44.8264 45.0704 43.9079L44.4854 41.1406C44.4742 41.0875 44.4535 41.0374 44.4244 40.9931C44.3953 40.9489 44.3584 40.9114 44.3159 40.8829C43.8344 40.5596 42.7664 40.3577 41.1689 40.3577C39.9899 40.3577 39.0914 40.4677 38.4899 40.6679C38.2799 40.7385 38.1329 40.8074 38.0399 40.8583L37.9034 40.9371L37.8824 41.0027L37.2689 43.9079C37.0754 44.8262 36.624 45.6552 35.9781 46.2786C35.3323 46.902 34.5242 47.2886 33.6674 47.3841L31.0484 47.6746C30.055 47.785 29.0587 47.4973 28.2444 46.865C27.4301 46.2326 26.8531 45.2986 26.6203 44.2361L26.3278 42.8952C26.0934 41.8218 26.1271 40.6992 26.4253 39.645C26.7235 38.5907 27.2753 37.6436 28.0229 36.9028C30.8714 34.0748 35.2664 32.6978 41.1704 32.6978C47.0834 32.6978 51.483 34.0797 54.333 36.9159C55.0325 37.6118 55.5604 38.4895 55.8679 39.4677C56.1755 40.4459 56.2527 41.4932 56.0925 42.5127L56.0265 42.8771ZM53.886 42.0335C53.9713 41.4304 53.9187 40.8135 53.7328 40.2381C53.547 39.6627 53.2337 39.1466 52.821 38.7361C50.448 36.3759 46.5764 35.1597 41.1704 35.1597C35.7734 35.1597 31.9049 36.3726 29.5304 38.7246C29.0822 39.1692 28.7516 39.7374 28.5729 40.3697C28.3943 41.0021 28.3742 41.6753 28.5149 42.3191L28.8074 43.6617C28.9129 44.1449 29.1752 44.5698 29.5454 44.8574C29.9156 45.1451 30.3686 45.276 30.8204 45.2258L33.4394 44.9337C33.8286 44.8902 34.1957 44.7146 34.4891 44.4315C34.7826 44.1483 34.9878 43.7718 35.0759 43.3547L35.7104 40.3676L35.7749 40.1443C36.3374 38.5063 38.1599 37.8958 41.1704 37.8958C43.1459 37.8958 44.5679 38.1649 45.4904 38.7821C46.0919 39.1842 46.5209 39.8358 46.6784 40.5875L47.2634 43.3531C47.4434 44.2099 48.1019 44.845 48.8999 44.9337L51.5325 45.2258C51.9855 45.2761 52.4397 45.1442 52.8104 44.8549C53.1811 44.5656 53.4429 44.1385 53.547 43.6535L53.835 42.3141L53.886 42.0335Z" fill="white"/>
<g opacity="0.2" filter="url(#filter1_f_1111_12476)">
<path d="M78.7899 40.3572C78.7899 60.9207 61.8118 77.6241 40.8268 77.6241C19.8418 77.6241 2.86368 60.9207 2.86368 40.3572C2.86368 19.7936 19.8418 3.09024 40.8268 3.09024C61.8118 3.09024 78.7899 19.7936 78.7899 40.3572Z" stroke="white" stroke-width="2.18048"/>
<path d="M78.7899 40.3572C78.7899 60.9207 61.8118 77.6241 40.8268 77.6241C19.8418 77.6241 2.86368 60.9207 2.86368 40.3572C2.86368 19.7936 19.8418 3.09024 40.8268 3.09024C61.8118 3.09024 78.7899 19.7936 78.7899 40.3572Z" stroke="white" stroke-width="2.18048"/>
</g>
<defs>
<filter id="filter0_b_1111_12476" x="-4.2737" y="-3.74977" width="89.8433" height="88.6504" filterUnits="userSpaceOnUse" color-interpolation-filters="sRGB">
<feFlood flood-opacity="0" result="BackgroundImageFix"/>
<feGaussianBlur in="BackgroundImageFix" stdDeviation="5.72376"/>
<feComposite in2="SourceAlpha" operator="in" result="effect1_backgroundBlur_1111_12476"/>
<feBlend mode="normal" in="SourceGraphic" in2="effect1_backgroundBlur_1111_12476" result="shape"/>
</filter>
<filter id="filter1_f_1111_12476" x="0.683197" y="0.90976" width="80.2869" height="78.8953" filterUnits="userSpaceOnUse" color-interpolation-filters="sRGB">
<feFlood flood-opacity="0" result="BackgroundImageFix"/>
<feBlend mode="normal" in="SourceGraphic" in2="BackgroundImageFix" result="shape"/>
<feGaussianBlur stdDeviation="0.54512" result="effect1_foregroundBlur_1111_12476"/>
</filter>
</defs>
</svg>
