<svg width="68" height="67" viewBox="0 0 68 67" fill="none" xmlns="http://www.w3.org/2000/svg">
<g filter="url(#filter0_b_1111_12497)">
<rect x="0.823242" y="0.395508" width="66.9487" height="65.7551" rx="32.8776" fill="#17242A"/>
</g>
<path d="M34.9051 39.8759C34.6672 39.8759 34.4391 39.7812 34.2709 39.6125C34.1027 39.4439 34.0082 39.2152 34.0082 38.9767V28.5584L31.0554 31.5204C30.8869 31.6893 30.6585 31.7841 30.4203 31.7841C30.1821 31.7841 29.9537 31.6893 29.7853 31.5204C29.6168 31.3516 29.5222 31.1226 29.5222 30.8838C29.5222 30.645 29.6168 30.416 29.7853 30.2471L34.2701 25.751C34.3534 25.6673 34.4524 25.6009 34.5614 25.5555C34.6703 25.5102 34.7871 25.4869 34.9051 25.4869C35.0231 25.4869 35.1399 25.5102 35.2489 25.5555C35.3579 25.6009 35.4569 25.6673 35.5402 25.751L40.025 30.2471C40.1934 30.416 40.288 30.645 40.288 30.8838C40.288 31.1226 40.1934 31.3516 40.025 31.5204C39.8566 31.6893 39.6281 31.7841 39.3899 31.7841C39.1518 31.7841 38.9233 31.6893 38.7549 31.5204L35.8021 28.5584V38.9767C35.8021 39.2152 35.7076 39.4439 35.5394 39.6125C35.3712 39.7812 35.143 39.8759 34.9051 39.8759ZM20.5537 25.4885C20.5537 24.5345 20.9317 23.6196 21.6046 22.9451C22.2774 22.2706 23.19 21.8916 24.1416 21.8916H45.6687C46.6203 21.8916 47.5328 22.2706 48.2057 22.9451C48.8785 23.6196 49.2565 24.5345 49.2565 25.4885V39.8759C49.2565 40.8299 48.8785 41.7447 48.2057 42.4193C47.5328 43.0938 46.6203 43.4728 45.6687 43.4728H24.1416C23.19 43.4728 22.2774 43.0938 21.6046 42.4193C20.9317 41.7447 20.5537 40.8299 20.5537 39.8759V25.4885ZM24.1416 23.69C23.6658 23.69 23.2095 23.8795 22.8731 24.2168C22.5366 24.5541 22.3476 25.0115 22.3476 25.4885V39.8759C22.3476 40.3529 22.5366 40.8103 22.8731 41.1476C23.2095 41.4849 23.6658 41.6744 24.1416 41.6744H45.6687C46.1445 41.6744 46.6008 41.4849 46.9372 41.1476C47.2736 40.8103 47.4626 40.3529 47.4626 39.8759V25.4885C47.4626 25.0115 47.2736 24.5541 46.9372 24.2168C46.6008 23.8795 46.1445 23.69 45.6687 23.69H24.1416Z" fill="white"/>
<defs>
<filter id="filter0_b_1111_12497" x="-10.6243" y="-11.052" width="89.8433" height="88.6499" filterUnits="userSpaceOnUse" color-interpolation-filters="sRGB">
<feFlood flood-opacity="0" result="BackgroundImageFix"/>
<feGaussianBlur in="BackgroundImageFix" stdDeviation="5.72376"/>
<feComposite in2="SourceAlpha" operator="in" result="effect1_backgroundBlur_1111_12497"/>
<feBlend mode="normal" in="SourceGraphic" in2="effect1_backgroundBlur_1111_12497" result="shape"/>
</filter>
</defs>
</svg>
